<svg width="59" height="40" viewBox="0 0 59 40" fill="none" xmlns="http://www.w3.org/2000/svg">
<rect x="1.08317" y="0.416667" width="57.5" height="39.1667" rx="4.58333" fill="#1F72CD" stroke="#D9D9D9" stroke-width="0.833333"/>
<path fill-rule="evenodd" clip-rule="evenodd" d="M11.1243 14.168L5.6665 26.2459H12.2002L13.0102 24.3202H14.8617L15.6717 26.2459H22.8635V24.7761L23.5043 26.2459H27.2245L27.8653 24.745V26.2459H42.8224L44.6411 24.3702L46.344 26.2459L54.0262 26.2614L48.5512 20.2406L54.0262 14.168H46.4632L44.6928 16.009L43.0434 14.168H26.7722L25.3749 17.2854L23.9449 14.168H17.4248V15.5877L16.6995 14.168H11.1243ZM33.4595 15.8835H42.0485L44.6755 18.7211L47.3871 15.8835H50.0141L46.0227 20.2394L50.0141 24.545H47.268L44.641 21.6745L41.9155 24.545H33.4595V15.8835ZM35.5802 19.2591V17.677V17.6755H40.9395L43.278 20.2056L40.8359 22.7497H35.5802V21.0225H40.2659V19.2591H35.5802ZM12.3886 15.8835H15.5734L19.1936 24.0736V15.8835H22.6825L25.4786 21.7557L28.0556 15.8835H31.527V24.5502H29.4147L29.3975 17.759L26.318 24.5502H24.4284L21.3317 17.759V24.5502H16.9862L16.1624 22.6072H11.7116L10.8895 24.5485H8.5612L12.3886 15.8835ZM12.4715 20.8112L13.9379 17.3499L15.4025 20.8112H12.4715Z" fill="white"/>
</svg>
