<svg width="92" height="119" viewBox="0 0 92 119" fill="none" xmlns="http://www.w3.org/2000/svg">
<g clip-path="url(#clip0_1119_510)">
<path d="M91.2734 25.3359H84.9033L79.5997 36.3035V82.3354L84.9033 93.303H91.2734V25.3359Z" fill="#282828"/>
<path d="M0.624121 25.3359H6.99423L12.2979 36.3035L12.2979 82.3354L6.99423 93.303H0.624121L0.624121 25.3359Z" fill="#282828"/>
<path d="M68.7463 83.3869C69.6975 83.3869 70.5046 82.7816 70.8217 81.9313C71.1387 82.7816 71.9314 83.3869 72.897 83.3869C74.122 83.3869 75.1309 82.3925 75.1309 81.1531V37.2973C75.1309 36.0723 74.1364 35.0635 72.897 35.0635C71.9458 35.0635 71.1387 35.6688 70.8217 36.5191C70.5046 35.6688 69.7119 35.0635 68.7463 35.0635C67.7807 35.0635 66.9881 35.6688 66.671 36.5191C66.3539 35.6688 65.5613 35.0635 64.5957 35.0635C63.6301 35.0635 62.8374 35.6688 62.5204 36.5191C62.2033 35.6688 61.4106 35.0635 60.445 35.0635C59.4794 35.0635 58.6868 35.6688 58.3697 36.5191C58.0526 35.6688 57.26 35.0635 56.2944 35.0635C55.3288 35.0635 54.5361 35.6688 54.219 36.5191C53.902 35.6688 53.1093 35.0635 52.1437 35.0635C51.1781 35.0635 50.3854 35.6688 50.0684 36.5191C49.7513 35.6688 48.9586 35.0635 47.993 35.0635C47.0274 35.0635 46.2348 35.6688 45.9177 36.5191C45.6007 35.6688 44.808 35.0635 43.8424 35.0635C42.8768 35.0635 42.0841 35.6688 41.7671 36.5191C41.45 35.6688 40.6573 35.0635 39.6917 35.0635C38.7261 35.0635 37.9335 35.6688 37.6164 36.5191C37.2993 35.6688 36.5067 35.0635 35.5411 35.0635C34.5755 35.0635 33.7828 35.6688 33.4657 36.5191C33.1487 35.6688 32.356 35.0635 31.3904 35.0635C30.4248 35.0635 29.6321 35.6688 29.3151 36.5191C28.998 35.6688 28.2054 35.0635 27.2398 35.0635C26.2742 35.0635 25.4815 35.6688 25.1644 36.5191C24.8474 35.6688 24.0547 35.0635 23.0891 35.0635C22.1235 35.0635 21.3308 35.6688 21.0138 36.5191C20.6967 35.6688 19.904 35.0635 18.9384 35.0635C17.7134 35.0635 16.7046 36.0579 16.7046 37.2973L16.7046 81.1531C16.7046 82.3781 17.699 83.3869 18.9384 83.3869C19.8896 83.3869 20.6967 82.7816 21.0138 81.9313C21.3308 82.7816 22.1235 83.3869 23.0891 83.3869C24.0547 83.3869 24.8474 82.7816 25.1644 81.9313C25.4815 82.7816 26.2742 83.3869 27.2398 83.3869C28.2054 83.3869 28.998 82.7816 29.3151 81.9313C29.6321 82.7816 30.4248 83.3869 31.3904 83.3869C32.356 83.3869 33.1487 82.7816 33.4657 81.9313C33.7828 82.7816 34.5755 83.3869 35.5411 83.3869C36.5067 83.3869 37.2993 82.7816 37.6164 81.9313C37.9335 82.7816 38.7261 83.3869 39.6917 83.3869C40.6573 83.3869 41.45 82.7816 41.7671 81.9313C42.0841 82.7816 42.8768 83.3869 43.8424 83.3869C44.808 83.3869 45.6007 82.7816 45.9177 81.9313C46.2348 82.7816 47.0274 83.3869 47.993 83.3869C48.9586 83.3869 49.7513 82.7816 50.0684 81.9313C50.3854 82.7816 51.1781 83.3869 52.1437 83.3869C53.1093 83.3869 53.902 82.7816 54.219 81.9313C54.5361 82.7816 55.3288 83.3869 56.2944 83.3869C57.26 83.3869 58.0526 82.7816 58.3697 81.9313C58.6868 82.7816 59.4794 83.3869 60.445 83.3869C61.4106 83.3869 62.2033 82.7816 62.5204 81.9313C62.8374 82.7816 63.6301 83.3869 64.5957 83.3869C65.5613 83.3869 66.3539 82.7816 66.671 81.9313C66.9881 82.7816 67.7807 83.3869 68.7463 83.3869Z" fill="#282828"/>
<path d="M89.3691 30.1338C89.3691 30.1338 88.2306 81.0514 88.2306 82.2044C88.2306 83.8618 86.112 83.8185 86.112 82.1756V89.1366H89.3691V30.1338Z" fill="#FFF4E4"/>
<path d="M72.9991 75.2103C72.9991 75.2103 72.7541 73.6394 72.7541 71.7082C72.7541 69.777 72.9991 68.2061 72.9991 68.2061C72.9991 68.2061 73.2441 69.777 73.2441 71.7082C73.2441 73.6394 72.9991 75.2103 72.9991 75.2103Z" fill="#FFF4E4"/>
<path d="M68.8304 77.217C68.8304 77.217 68.5133 74.4643 68.5133 71.0631C68.5133 67.6619 68.8304 64.9092 68.8304 64.9092C68.8304 64.9092 69.1475 67.6619 69.1475 71.0631C69.1475 74.4643 68.8304 77.217 68.8304 77.217Z" fill="#FFF4E4"/>
<path d="M64.6686 75.2151C64.6686 75.2151 64.3947 73.0677 64.3947 70.4303C64.3947 67.7929 64.6686 65.6455 64.6686 65.6455C64.6686 65.6455 64.9424 67.7929 64.9424 70.4303C64.9424 73.0677 64.6686 75.2151 64.6686 75.2151Z" fill="#FFF4E4"/>
<path d="M60.5067 77.4594C60.5067 77.4594 60.1608 74.0293 60.1608 69.7922C60.1608 65.5551 60.5067 62.125 60.5067 62.125C60.5067 62.125 60.8525 65.5551 60.8525 69.7922C60.8525 74.0293 60.5067 77.4594 60.5067 77.4594Z" fill="#FFF4E4"/>
<path d="M56.3385 73.6723C56.3385 73.6723 56.0646 71.6546 56.0646 69.1614C56.0646 66.6681 56.3385 64.6504 56.3385 64.6504C56.3385 64.6504 56.6123 66.6681 56.6123 69.1614C56.6123 71.6546 56.3385 73.6723 56.3385 73.6723Z" fill="#FFF4E4"/>
<path d="M52.1702 77.6959C52.1702 77.6959 51.7955 73.5884 51.7955 68.5154C51.7955 63.4424 52.1702 59.335 52.1702 59.335C52.1702 59.335 52.5449 63.4424 52.5449 68.5154C52.5449 73.5884 52.1702 77.6959 52.1702 77.6959Z" fill="#FFF4E4"/>
<path d="M48.0115 77.8085C48.0115 77.8085 47.608 73.3552 47.608 67.8642C47.608 62.3732 48.0115 57.9199 48.0115 57.9199C48.0115 57.9199 48.415 62.3732 48.415 67.8642C48.415 73.3552 48.0115 77.8085 48.0115 77.8085Z" fill="#FFF4E4"/>
<path d="M39.6783 76.1958C39.6783 76.1958 39.2891 71.901 39.2891 66.5974C39.2891 61.2938 39.6783 56.999 39.6783 56.999C39.6783 56.999 40.0674 61.2938 40.0674 66.5974C40.0674 71.901 39.6783 76.1958 39.6783 76.1958Z" fill="#FFF4E4"/>
<path d="M35.5128 71.698C35.5128 71.698 35.2101 69.1183 35.2101 65.9477C35.2101 62.777 35.5128 60.1973 35.5128 60.1973C35.5128 60.1973 35.8154 62.777 35.8154 65.9477C35.8154 69.1183 35.5128 71.698 35.5128 71.698Z" fill="#FFF4E4"/>
<path d="M31.3455 78.2863C31.3455 78.2863 30.8843 72.4783 30.8843 65.3155C30.8843 58.1528 31.3455 52.3447 31.3455 52.3447C31.3455 52.3447 31.8066 58.1528 31.8066 65.3155C31.8066 72.4783 31.3455 78.2863 31.3455 78.2863Z" fill="#FFF4E4"/>
<path d="M27.1826 78.3995C27.1826 78.3995 26.707 72.2599 26.707 64.6792C26.707 57.0985 27.1826 50.959 27.1826 50.959C27.1826 50.959 27.6582 57.0985 27.6582 64.6792C27.6582 72.2599 27.1826 78.3995 27.1826 78.3995Z" fill="#FFF4E4"/>
<path d="M23.0208 75.4903C23.0208 75.4903 22.5884 70.3596 22.5884 64.0327C22.5884 57.7059 23.0208 52.5752 23.0208 52.5752C23.0208 52.5752 23.4531 57.7059 23.4531 64.0327C23.4531 70.3596 23.0208 75.4903 23.0208 75.4903Z" fill="#FFF4E4"/>
<path d="M18.8531 70.1552C18.8531 70.1552 18.5216 67.1287 18.5216 63.396C18.5216 59.6632 18.8531 56.6367 18.8531 56.6367C18.8531 56.6367 19.1846 59.6632 19.1846 63.396C19.1846 67.1287 18.8531 70.1552 18.8531 70.1552Z" fill="#FFF4E4"/>
<path d="M75.1762 5.76889C73.3603 8.89629 71.6165 13.5081 70.4491 16.7797L58.6457 37.0574C42.2016 65.3049 17.2544 111.885 14.2567 117.606L13.8387 118.327C13.8387 118.327 13.9252 118.183 14.0693 117.981C13.954 118.211 13.882 118.355 13.882 118.355L14.2999 117.635C17.802 112.187 42.8213 72.9144 62.4072 39.248L74.2106 18.9703C76.4733 16.3329 79.4998 12.9317 81.3158 9.81866C84.7458 3.88091 83.6649 1.89205 82.1372 1.01292C80.6096 0.119377 78.6207 -0.140038 75.1762 5.76889ZM77.6407 6.07154C79.0531 3.65032 80.3069 2.68472 80.941 3.05943C81.5752 3.43414 81.359 4.99064 79.9466 7.41185C78.5342 9.84748 75.4068 14.0126 74.7727 13.6378C74.1386 13.2631 76.2283 8.49275 77.6407 6.07154Z" fill="#282828"/>
<path d="M72.8115 18.4951L27.5578 95.2967L71.6442 19.0572L72.8115 18.4951Z" fill="#FFF4E4"/>
<path d="M43.8439 82.2363C43.8439 82.2363 42.2297 75.5203 42.2297 67.2334C42.2297 58.9465 43.8439 52.2305 43.8439 52.2305C43.8439 52.2305 45.458 58.9465 45.458 67.2334C45.458 75.5203 43.8439 82.2363 43.8439 82.2363Z" fill="#282828"/>
<path d="M43.8428 81.3844C43.8428 81.3844 43.4248 72.766 43.4248 62.1443C43.4248 51.5227 43.8428 42.9043 43.8428 42.9043C43.8428 42.9043 44.2607 51.5227 44.2607 62.1443C44.2607 72.766 43.8428 81.3844 43.8428 81.3844Z" fill="#FFF4E4"/>
<path d="M74.5268 10.0755C73.8639 11.1996 73.4027 12.3526 73.0136 13.592C72.6965 14.572 72.293 15.5664 72.2786 16.6185C72.2786 16.7482 72.3939 16.8779 72.538 16.8779C73.4892 16.8059 73.5468 16.1285 73.4459 15.307C73.2298 13.4479 73.7486 11.7617 74.5557 10.0899C74.5557 10.0755 74.5557 10.0611 74.5268 10.0899V10.0755Z" fill="#FFF4E4"/>
<path d="M81.8737 2.54824C82.1764 3.05266 81.9458 3.47061 82.0178 4.00385C82.0899 4.47945 82.1331 4.86857 82.0755 5.34417C82.0611 5.45946 82.234 5.48829 82.2772 5.40182C82.5222 4.96946 82.9258 4.40739 82.9258 3.88856C82.9258 3.26884 82.3637 2.89413 81.9314 2.51942C81.9025 2.49059 81.8593 2.51942 81.8737 2.56265V2.54824Z" fill="#FFF4E4"/>
<path d="M70.0026 38.4763C69.8585 38.0872 69.8585 37.8566 69.4838 37.6116C69.1235 37.381 68.7055 37.4963 68.3308 37.626C68.1002 37.7124 68.0138 37.8566 67.9849 38.0872C67.9849 38.1592 67.639 38.4042 67.5814 38.4763C67.5237 38.5483 67.5814 38.6348 67.6679 38.6204C67.7687 38.606 68.2011 38.4763 68.2155 38.4907C68.3164 38.5483 68.4749 38.5772 68.5902 38.5339C68.9794 38.3754 69.5702 38.1592 69.9305 38.4763C69.9594 38.5051 70.017 38.4763 70.0026 38.433V38.4763Z" fill="#FFF4E4"/>
<path d="M65.7244 38.3639C65.6524 38.3351 65.5947 38.1477 65.5371 38.0757C65.0471 37.4127 64.4706 38.5657 65.1047 38.6522C65.4218 38.6954 65.4362 38.5369 65.71 38.4792C65.7533 38.4792 65.7677 38.3927 65.71 38.3639H65.7244Z" fill="#FFF4E4"/>
<path d="M6.95144 88.9775L10.9868 80.6329L10.9868 67.8351L9.44472 68.671C9.44472 68.671 8.00352 69.3916 7.90263 67.7918C7.90263 67.7918 7.25409 43.9111 7.65762 35.6242C7.81616 32.3815 11.0156 36.6475 11.0156 36.6475L6.96585 30.2197V30.5368V30.4503L6.96585 88.9775H6.95144Z" fill="#FFF4E4"/>
<path d="M41.1221 65.0986L38.1821 69.6096L38.6433 73.5297L41.4824 67.9378L41.1221 65.0986Z" fill="#282828"/>
<path d="M41.2059 69.5217V75.1424L42.9209 71.6402V68.7002L41.2059 69.5217Z" fill="#282828"/>
</g>
<defs>
<clipPath id="clip0_1119_510">
<rect width="117.818" height="90.6515" fill="white" transform="matrix(0 1 -1 0 91.2734 0.517578)"/>
</clipPath>
</defs>
</svg>
