<svg width="31" height="31" viewBox="0 0 31 31" fill="none" xmlns="http://www.w3.org/2000/svg">
<path d="M16.9992 0.916016C18.6404 0.918728 19.4721 0.92742 20.1907 0.948814L20.4738 0.958059C20.8008 0.969682 21.1234 0.984266 21.5123 1.00249C23.0641 1.0742 24.1227 1.31968 25.0524 1.68062C26.0136 2.05128 26.8254 2.55197 27.636 3.36257C28.4453 4.17316 28.9461 4.98739 29.318 5.94624C29.6776 6.87472 29.9232 7.93445 29.9961 9.48635C30.0135 9.87524 30.0275 10.1978 30.039 10.5248L30.0482 10.8079C30.0695 11.5265 30.0793 12.3583 30.0823 13.9996L30.0835 15.0869C30.0836 15.2197 30.0836 15.3568 30.0836 15.4983L30.0835 15.9097L30.0826 16.9972C30.0798 18.6384 30.0712 19.4702 30.0498 20.1887L30.0405 20.4718C30.029 20.7989 30.0144 21.1215 29.9961 21.5103C29.9244 23.0622 29.6776 24.1207 29.318 25.0504C28.9473 26.0117 28.4453 26.8236 27.636 27.6341C26.8254 28.4435 26.0099 28.9441 25.0524 29.316C24.1227 29.6758 23.0641 29.9212 21.5123 29.9941C21.1234 30.0115 20.8008 30.0256 20.4738 30.037L20.1907 30.0462C19.4721 30.0676 18.6404 30.0772 16.9992 30.0805L15.9117 30.0816C15.7789 30.0816 15.6418 30.0816 15.5003 30.0816H15.0889L14.0014 30.0806C12.3602 30.078 11.5284 30.0692 10.8098 30.0478L10.5268 30.0386C10.1998 30.0269 9.87718 30.0123 9.4883 29.9941C7.93639 29.9225 6.8791 29.6758 5.9482 29.316C4.98812 28.9454 4.1751 28.4435 3.36451 27.6341C2.55393 26.8236 2.05445 26.0081 1.68257 25.0504C1.32164 24.1207 1.07736 23.0622 1.00445 21.5103C0.987123 21.1215 0.972992 20.7989 0.961544 20.4718L0.952371 20.1887C0.931036 19.4702 0.921309 18.6384 0.918159 16.9972L0.917969 13.9996C0.920681 12.3583 0.929358 11.5265 0.950752 10.8079L0.960013 10.5248C0.971635 10.1978 0.986219 9.87524 1.00445 9.48635C1.07614 7.93322 1.32164 6.87593 1.68257 5.94624C2.05322 4.98618 2.55393 4.17316 3.36451 3.36257C4.1751 2.55197 4.98934 2.05249 5.9482 1.68062C6.87789 1.31968 7.93518 1.07541 9.4883 1.00249C9.87718 0.985184 10.1998 0.971053 10.5268 0.959605L10.8098 0.950432C11.5284 0.929082 12.3602 0.919355 14.0014 0.916205L16.9992 0.916016ZM15.5003 8.20666C11.4711 8.20666 8.20861 11.4726 8.20861 15.4983C8.20861 19.5275 11.4746 22.79 15.5003 22.79C19.5295 22.79 22.792 19.524 22.792 15.4983C22.792 11.4691 19.5259 8.20666 15.5003 8.20666ZM15.5003 11.1233C17.9166 11.1233 19.8753 13.0814 19.8753 15.4983C19.8753 17.9146 17.9172 19.8733 15.5003 19.8733C13.084 19.8733 11.1253 17.9153 11.1253 15.4983C11.1253 13.082 13.0833 11.1233 15.5003 11.1233ZM23.1566 6.01916C22.1513 6.01916 21.3336 6.8357 21.3336 7.84084C21.3336 8.84599 22.1502 9.66378 23.1566 9.66378C24.1616 9.66378 24.9795 8.84726 24.9795 7.84084C24.9795 6.8357 24.1603 6.01791 23.1566 6.01916Z" fill="#FFF4E4"/>
</svg>
