<svg width="33" height="43" viewBox="0 0 33 43" fill="none" xmlns="http://www.w3.org/2000/svg">
<g clip-path="url(#clip0_1119_473)">
<path d="M32.9023 9.20312H30.6495L28.7739 13.0818V29.3611L30.6495 33.2398H32.9023V9.20312Z" fill="#FFF4E4"/>
<path d="M0.843727 9.2041H3.09653L4.97217 13.0828L4.97217 29.3621L3.09653 33.2408H0.843727L0.843727 9.2041Z" fill="#FFF4E4"/>
<path d="M24.935 29.7342C25.2714 29.7342 25.5568 29.5202 25.6689 29.2195C25.781 29.5202 26.0614 29.7342 26.4029 29.7342C26.8361 29.7342 27.1929 29.3826 27.1929 28.9442V13.4345C27.1929 13.0013 26.8412 12.6445 26.4029 12.6445C26.0665 12.6445 25.781 12.8586 25.6689 13.1593C25.5568 12.8586 25.2765 12.6445 24.935 12.6445C24.5935 12.6445 24.3132 12.8586 24.201 13.1593C24.0889 12.8586 23.8086 12.6445 23.4671 12.6445C23.1256 12.6445 22.8453 12.8586 22.7331 13.1593C22.621 12.8586 22.3407 12.6445 21.9992 12.6445C21.6577 12.6445 21.3774 12.8586 21.2652 13.1593C21.1531 12.8586 20.8728 12.6445 20.5313 12.6445C20.1898 12.6445 19.9095 12.8586 19.7974 13.1593C19.6852 12.8586 19.4049 12.6445 19.0634 12.6445C18.7219 12.6445 18.4416 12.8586 18.3295 13.1593C18.2173 12.8586 17.937 12.6445 17.5955 12.6445C17.254 12.6445 16.9737 12.8586 16.8616 13.1593C16.7494 12.8586 16.4691 12.6445 16.1276 12.6445C15.7861 12.6445 15.5058 12.8586 15.3937 13.1593C15.2816 12.8586 15.0012 12.6445 14.6597 12.6445C14.3183 12.6445 14.0379 12.8586 13.9258 13.1593C13.8137 12.8586 13.5333 12.6445 13.1919 12.6445C12.8504 12.6445 12.57 12.8586 12.4579 13.1593C12.3458 12.8586 12.0655 12.6445 11.724 12.6445C11.3825 12.6445 11.1021 12.8586 10.99 13.1593C10.8779 12.8586 10.5976 12.6445 10.2561 12.6445C9.91459 12.6445 9.63426 12.8586 9.52213 13.1593C9.41 12.8586 9.12967 12.6445 8.78818 12.6445C8.4467 12.6445 8.16637 12.8586 8.05424 13.1593C7.94211 12.8586 7.66178 12.6445 7.32029 12.6445C6.88706 12.6445 6.53028 12.9962 6.53028 13.4345V28.9442C6.53028 29.3775 6.88197 29.7342 7.32029 29.7342C7.65668 29.7342 7.94211 29.5202 8.05424 29.2195C8.16637 29.5202 8.4467 29.7342 8.78818 29.7342C9.12967 29.7342 9.41 29.5202 9.52213 29.2195C9.63426 29.5202 9.91459 29.7342 10.2561 29.7342C10.5976 29.7342 10.8779 29.5202 10.99 29.2195C11.1021 29.5202 11.3825 29.7342 11.724 29.7342C12.0655 29.7342 12.3458 29.5202 12.4579 29.2195C12.57 29.5202 12.8504 29.7342 13.1919 29.7342C13.5333 29.7342 13.8137 29.5202 13.9258 29.2195C14.0379 29.5202 14.3183 29.7342 14.6597 29.7342C15.0012 29.7342 15.2816 29.5202 15.3937 29.2195C15.5058 29.5202 15.7861 29.7342 16.1276 29.7342C16.4691 29.7342 16.7494 29.5202 16.8616 29.2195C16.9737 29.5202 17.254 29.7342 17.5955 29.7342C17.937 29.7342 18.2173 29.5202 18.3295 29.2195C18.4416 29.5202 18.7219 29.7342 19.0634 29.7342C19.4049 29.7342 19.6852 29.5202 19.7974 29.2195C19.9095 29.5202 20.1898 29.7342 20.5313 29.7342C20.8728 29.7342 21.1531 29.5202 21.2652 29.2195C21.3774 29.5202 21.6577 29.7342 21.9992 29.7342C22.3407 29.7342 22.621 29.5202 22.7331 29.2195C22.8453 29.5202 23.1256 29.7342 23.4671 29.7342C23.8086 29.7342 24.0889 29.5202 24.201 29.2195C24.3132 29.5202 24.5935 29.7342 24.935 29.7342Z" fill="#FFF4E4"/>
<path d="M32.2285 10.9004C32.2285 10.9004 31.8259 28.9075 31.8259 29.3153C31.8259 29.9014 31.0766 29.8861 31.0766 29.3051V31.7669H32.2285V10.9004Z" fill="#282828"/>
<path d="M26.4392 26.8423C26.4392 26.8423 26.3526 26.2867 26.3526 25.6038C26.3526 24.9208 26.4392 24.3652 26.4392 24.3652C26.4392 24.3652 26.5259 24.9208 26.5259 25.6038C26.5259 26.2867 26.4392 26.8423 26.4392 26.8423Z" fill="#282828"/>
<path d="M24.9655 27.5519C24.9655 27.5519 24.8534 26.5784 24.8534 25.3756C24.8534 24.1727 24.9655 23.1992 24.9655 23.1992C24.9655 23.1992 25.0776 24.1727 25.0776 25.3756C25.0776 26.5784 24.9655 27.5519 24.9655 27.5519Z" fill="#282828"/>
<path d="M23.4935 26.8443C23.4935 26.8443 23.3967 26.0848 23.3967 25.1521C23.3967 24.2194 23.4935 23.46 23.4935 23.46C23.4935 23.46 23.5903 24.2194 23.5903 25.1521C23.5903 26.0848 23.4935 26.8443 23.4935 26.8443Z" fill="#282828"/>
<path d="M22.0212 27.6379C22.0212 27.6379 21.8989 26.4248 21.8989 24.9264C21.8989 23.4279 22.0212 22.2148 22.0212 22.2148C22.0212 22.2148 22.1436 23.4279 22.1436 24.9264C22.1436 26.4248 22.0212 27.6379 22.0212 27.6379Z" fill="#282828"/>
<path d="M20.5477 26.298C20.5477 26.298 20.4509 25.5845 20.4509 24.7027C20.4509 23.821 20.5477 23.1074 20.5477 23.1074C20.5477 23.1074 20.6445 23.821 20.6445 24.7027C20.6445 25.5845 20.5477 26.298 20.5477 26.298Z" fill="#282828"/>
<path d="M19.074 27.7209C19.074 27.7209 18.9415 26.2683 18.9415 24.4742C18.9415 22.6801 19.074 21.2275 19.074 21.2275C19.074 21.2275 19.2065 22.6801 19.2065 24.4742C19.2065 26.2683 19.074 27.7209 19.074 27.7209Z" fill="#282828"/>
<path d="M17.6024 27.7612C17.6024 27.7612 17.4597 26.1863 17.4597 24.2444C17.4597 22.3025 17.6024 20.7275 17.6024 20.7275C17.6024 20.7275 17.7451 22.3025 17.7451 24.2444C17.7451 26.1863 17.6024 27.7612 17.6024 27.7612Z" fill="#282828"/>
<path d="M14.6554 27.1913C14.6554 27.1913 14.5177 25.6725 14.5177 23.7968C14.5177 21.9212 14.6554 20.4023 14.6554 20.4023C14.6554 20.4023 14.793 21.9212 14.793 23.7968C14.793 25.6725 14.6554 27.1913 14.6554 27.1913Z" fill="#282828"/>
<path d="M13.1825 25.6005C13.1825 25.6005 13.0755 24.6881 13.0755 23.5668C13.0755 22.4455 13.1825 21.5332 13.1825 21.5332C13.1825 21.5332 13.2896 22.4455 13.2896 23.5668C13.2896 24.6881 13.1825 25.6005 13.1825 25.6005Z" fill="#282828"/>
<path d="M11.7085 27.9302C11.7085 27.9302 11.5454 25.8761 11.5454 23.343C11.5454 20.8099 11.7085 18.7559 11.7085 18.7559C11.7085 18.7559 11.8716 20.8099 11.8716 23.343C11.8716 25.8761 11.7085 27.9302 11.7085 27.9302Z" fill="#282828"/>
<path d="M10.2361 27.97C10.2361 27.97 10.0679 25.7988 10.0679 23.1178C10.0679 20.4369 10.2361 18.2656 10.2361 18.2656C10.2361 18.2656 10.4043 20.4369 10.4043 23.1178C10.4043 25.7988 10.2361 27.97 10.2361 27.97Z" fill="#282828"/>
<path d="M8.76458 26.9409C8.76458 26.9409 8.61167 25.1264 8.61167 22.8889C8.61167 20.6514 8.76458 18.8369 8.76458 18.8369C8.76458 18.8369 8.91748 20.6514 8.91748 22.8889C8.91748 25.1264 8.76458 26.9409 8.76458 26.9409Z" fill="#282828"/>
<path d="M7.29049 25.0543C7.29049 25.0543 7.17326 23.9839 7.17326 22.6639C7.17326 21.3438 7.29049 20.2734 7.29049 20.2734C7.29049 20.2734 7.40771 21.3438 7.40771 22.6639C7.40771 23.9839 7.29049 25.0543 7.29049 25.0543Z" fill="#282828"/>
<path d="M27.2096 2.28366C26.5674 3.38967 25.9507 5.02066 25.5379 6.17764L21.3636 13.3489C15.5481 23.3387 6.72543 39.8117 5.66529 41.8351L5.51748 42.09C5.51748 42.09 5.54806 42.039 5.59903 41.9676C5.55825 42.0492 5.53277 42.1002 5.53277 42.1002L5.68058 41.8453C6.91911 39.9187 15.7672 26.0298 22.6938 14.1236L26.8681 6.95236C27.6683 6.01964 28.7387 4.81679 29.3809 3.71587C30.5939 1.61597 30.2117 0.912606 29.6714 0.601699C29.1311 0.285695 28.4278 0.193952 27.2096 2.28366ZM28.0812 2.39069C28.5807 1.53442 29.0241 1.19293 29.2484 1.32545C29.4726 1.45797 29.3962 2.00843 28.8967 2.8647C28.3972 3.72606 27.2912 5.19905 27.0669 5.06653C26.8427 4.93401 27.5817 3.24696 28.0812 2.39069Z" fill="#FFF4E4"/>
<path d="M26.374 6.78418L10.3699 33.9452L25.9612 6.98296L26.374 6.78418Z" fill="#282828"/>
<path d="M16.1284 29.3265C16.1284 29.3265 15.5575 26.9513 15.5575 24.0207C15.5575 21.09 16.1284 18.7148 16.1284 18.7148C16.1284 18.7148 16.6992 21.09 16.6992 24.0207C16.6992 26.9513 16.1284 29.3265 16.1284 29.3265Z" fill="#FFF4E4"/>
<path d="M16.1286 29.0256C16.1286 29.0256 15.9807 25.9776 15.9807 22.2213C15.9807 18.4649 16.1286 15.417 16.1286 15.417C16.1286 15.417 16.2764 18.4649 16.2764 22.2213C16.2764 25.9776 16.1286 29.0256 16.1286 29.0256Z" fill="#282828"/>
<path d="M26.9791 3.80743C26.7446 4.20498 26.5815 4.61273 26.4439 5.05106C26.3318 5.39764 26.1891 5.74933 26.184 6.12139C26.184 6.16727 26.2247 6.21314 26.2757 6.21314C26.6121 6.18765 26.6325 5.9481 26.5968 5.65758C26.5203 5.00009 26.7038 4.40376 26.9893 3.81253C26.9893 3.80743 26.9893 3.80233 26.9791 3.81253V3.80743Z" fill="#282828"/>
<path d="M29.5781 1.14516C29.6852 1.32355 29.6036 1.47135 29.6291 1.65994C29.6546 1.82813 29.6699 1.96575 29.6495 2.13394C29.6444 2.17472 29.7055 2.18491 29.7208 2.15433C29.8075 2.00143 29.9502 1.80265 29.9502 1.61916C29.9502 1.4 29.7514 1.26748 29.5985 1.13496C29.5883 1.12477 29.573 1.13496 29.5781 1.15025V1.14516Z" fill="#282828"/>
<path d="M25.3796 13.8515C25.3286 13.7139 25.3286 13.6324 25.1961 13.5457C25.0687 13.4642 24.9209 13.505 24.7883 13.5508C24.7068 13.5814 24.6762 13.6324 24.666 13.7139C24.666 13.7394 24.5437 13.8261 24.5233 13.8515C24.5029 13.877 24.5233 13.9076 24.5539 13.9025C24.5896 13.8974 24.7425 13.8515 24.7476 13.8566C24.7832 13.877 24.8393 13.8872 24.8801 13.8719C25.0177 13.8159 25.2267 13.7394 25.3541 13.8515C25.3643 13.8617 25.3847 13.8515 25.3796 13.8362V13.8515Z" fill="#282828"/>
<path d="M23.8667 13.811C23.8412 13.8008 23.8208 13.7346 23.8004 13.7091C23.6271 13.4746 23.4232 13.8824 23.6475 13.9129C23.7596 13.9282 23.7647 13.8722 23.8616 13.8518C23.8768 13.8518 23.8819 13.8212 23.8616 13.811H23.8667Z" fill="#282828"/>
<path d="M3.08125 31.7115L4.50836 28.7604L4.50836 24.2344L3.963 24.53C3.963 24.53 3.45332 24.7849 3.41764 24.2191C3.41764 24.2191 3.18828 15.7736 3.33099 12.843C3.38706 11.6962 4.51855 13.2048 4.51855 13.2048L3.08634 10.9316V11.0438V11.0132L3.08634 31.7115H3.08125Z" fill="#282828"/>
<path d="M15.166 23.2666L14.1263 24.8619L14.2894 26.2483L15.2935 24.2707L15.166 23.2666Z" fill="#FFF4E4"/>
<path d="M15.1957 24.8306V26.8183L15.8022 25.5798V24.54L15.1957 24.8306Z" fill="#FFF4E4"/>
</g>
<defs>
<clipPath id="clip0_1119_473">
<rect width="41.6667" height="32.0591" fill="white" transform="matrix(0 1 -1 0 32.9019 0.426758)"/>
</clipPath>
</defs>
</svg>
