<svg width="59" height="40" viewBox="0 0 59 40" fill="none" xmlns="http://www.w3.org/2000/svg">
<rect x="0.416667" y="0.416667" width="57.5" height="39.1667" rx="4.58333" fill="white" stroke="#D9D9D9" stroke-width="0.833333"/>
<path fill-rule="evenodd" clip-rule="evenodd" d="M29.5831 28.5935C27.5971 30.3074 25.021 31.342 22.206 31.342C15.9249 31.342 10.833 26.191 10.833 19.837C10.833 13.483 15.9249 8.33203 22.206 8.33203C25.021 8.33203 27.5971 9.36664 29.5831 11.0805C31.569 9.36664 34.1452 8.33203 36.9602 8.33203C43.2413 8.33203 48.3331 13.483 48.3331 19.837C48.3331 26.191 43.2413 31.342 36.9602 31.342C34.1452 31.342 31.569 30.3074 29.5831 28.5935Z" fill="#ED0006"/>
<path fill-rule="evenodd" clip-rule="evenodd" d="M29.583 28.5935C32.0283 26.4833 33.5788 23.3433 33.5788 19.837C33.5788 16.3307 32.0283 13.1907 29.583 11.0805C31.569 9.36664 34.1451 8.33203 36.9601 8.33203C43.2412 8.33203 48.3331 13.483 48.3331 19.837C48.3331 26.191 43.2412 31.342 36.9601 31.342C34.1451 31.342 31.569 30.3074 29.583 28.5935Z" fill="#F9A000"/>
<path fill-rule="evenodd" clip-rule="evenodd" d="M29.5832 28.5951C32.0285 26.4849 33.5791 23.3449 33.5791 19.8386C33.5791 16.3322 32.0285 13.1923 29.5832 11.082C27.1379 13.1923 25.5874 16.3322 25.5874 19.8386C25.5874 23.3449 27.1379 26.4849 29.5832 28.5951Z" fill="#FF5E00"/>
</svg>
