<svg width="31" height="31" viewBox="0 0 31 31" fill="none" xmlns="http://www.w3.org/2000/svg">
<path d="M30.0837 15.4993C30.0837 23.5534 23.5544 30.0827 15.5003 30.0827C7.44617 30.0827 0.916992 23.5534 0.916992 15.4993C0.916992 7.44519 7.44617 0.916016 15.5003 0.916016C23.5544 0.916016 30.0837 7.44519 30.0837 15.4993ZM16.023 11.6821C14.6045 12.2721 11.7696 13.4933 7.51828 15.3455C6.82792 15.62 6.4663 15.8886 6.43337 16.1511C6.37774 16.595 6.93351 16.7697 7.69034 17.0077C7.79328 17.0401 7.89996 17.0736 8.0093 17.1092C8.7539 17.3511 9.75553 17.6343 10.2762 17.6456C10.7485 17.6558 11.2757 17.4611 11.8577 17.0614C15.8299 14.3801 17.8803 13.0248 18.0091 12.9957C18.0999 12.975 18.2258 12.9492 18.311 13.0248C18.3963 13.1007 18.3878 13.2442 18.3789 13.2827C18.3238 13.5175 16.1421 15.5457 15.0132 16.5953C14.6765 16.9082 14.3484 17.2279 14.0176 17.5467C13.326 18.2135 12.8072 18.7135 14.0464 19.5302C15.3026 20.3581 16.5683 21.1842 17.7934 22.0576C18.3976 22.4884 18.9405 22.8755 19.6111 22.8138C20.0009 22.7779 20.4034 22.4114 20.6077 21.3185C21.0908 18.7358 22.0405 13.1399 22.26 10.8339C22.2792 10.6319 22.255 10.3733 22.2356 10.2598C22.2162 10.1463 22.1756 9.98457 22.0281 9.86486C21.8533 9.72308 21.5836 9.69318 21.463 9.69531C20.9144 9.70498 20.0729 9.9976 16.023 11.6821Z" fill="#FFF4E4"/>
</svg>
