<svg width="59" height="40" viewBox="0 0 59 40" fill="none" xmlns="http://www.w3.org/2000/svg">
<rect x="0.750163" y="0.416667" width="57.5" height="39.1667" rx="4.58333" fill="white" stroke="#D9D9D9" stroke-width="0.833333"/>
<path fill-rule="evenodd" clip-rule="evenodd" d="M18.0423 27.0982H14.5084L11.8584 16.9884C11.7326 16.5234 11.4656 16.1123 11.0727 15.9185C10.0923 15.4315 9.01203 15.044 7.8335 14.8485V14.4593H13.5263C14.312 14.4593 14.9012 15.044 14.9994 15.723L16.3744 23.0156L19.9065 14.4593H23.3422L18.0423 27.0982ZM25.3063 27.0982H21.9688L24.717 14.4593H28.0545L25.3063 27.0982ZM32.3724 17.9608C32.4706 17.2801 33.0598 16.8909 33.7473 16.8909C34.8276 16.7931 36.0044 16.9886 36.9865 17.4739L37.5758 14.7527C36.5937 14.3634 35.5134 14.168 34.533 14.168C31.2938 14.168 28.9367 15.9186 28.9367 18.3484C28.9367 20.1968 30.6063 21.1673 31.7848 21.752C33.0598 22.335 33.5509 22.7242 33.4527 23.3072C33.4527 24.1817 32.4706 24.5709 31.4902 24.5709C30.3116 24.5709 29.1331 24.2794 28.0545 23.7925L27.4653 26.5154C28.6438 27.0007 29.9188 27.1961 31.0973 27.1961C34.7294 27.2922 36.9865 25.5432 36.9865 22.918C36.9865 19.6121 32.3724 19.4183 32.3724 17.9608V17.9608ZM48.6667 27.0982L46.0167 14.4593H43.1703C42.5811 14.4593 41.9918 14.8485 41.7954 15.4315L36.8883 27.0982H40.3239L41.0097 25.2515H45.231L45.6239 27.0982H48.6667ZM43.6614 17.8626L44.6417 22.626H41.8936L43.6614 17.8626Z" fill="#172B85"/>
</svg>
